<?xml version="1.0" encoding="UTF-8"?><svg id="Layer_1" xmlns="http://www.w3.org/2000/svg" viewBox="0 0 701.6 735.92"><defs><style>.cls-1,.cls-2{fill:#bca475;}.cls-2{fill-rule:evenodd;}</style></defs><g><path class="cls-1" d="M576.59,213.97c-1.69,1.63-3.4,3.2-5.15,4.73l82.38,123.11-31.32-4.19c-10.14-1.35-19.06-7.36-24.15-16.24l-49.15-85.87c-1.95,1.26-3.93,2.48-5.94,3.64l78.84,143.53-31.35-6.32c-10.26-2.07-18.93-8.92-23.32-18.43l-49.17-106.44c-2.16,.9-4.33,1.73-6.53,2.51l51.52,116.81-23.92-4.82c-11.26-2.27-20.52-10.27-24.42-21.09l-30.03-83.47c-2.28,.45-4.58,.86-6.88,1.22l33.24,97.69-17.88-3.61c-12.26-2.48-22.06-11.72-25.25-23.83l-17.11-64.79h-.02c-2.2,.61-4.37,1.26-6.53,1.98l19.83,80.78-12.82-2.58c-13.29-2.68-23.57-13.26-25.88-26.63l-7.09-41.05-12.24,28.42c-1.36,3.16-1.04,6.8,.87,9.67l37.74,56.92c.52,.78,.83,1.69,.89,2.63l.74,10.77,23.78,23.81h55.94v24.44l-11.9-11.94h-13.12l12.47,12.51-13.59,13.61v-13.61l-12.49-12.51h-12.02l-12.49,12.51v10.75l-14.52-14.56,12.61-12.3-22.21-22.24-7.99,.88c-1.26,.14-2.53-.17-3.59-.87l-46.67-31.07,33.54,45.38,53.42,72.25h-22.54c-12.78,0-24.39-7.42-29.78-19.02l-19.59-42.19c-1.85,.86-3.72,1.67-5.61,2.4l31.45,79.37h-10.85c-15.86,0-29.46-11.35-32.31-26.98l-8.49-46.59c-1.85,.33-3.7,.63-5.59,.86l7.1,55.64c1.36,10.69-2.59,21.38-10.59,28.6l-10.03,9.05-10.03-9.05c-8-7.22-11.96-17.9-10.59-28.6l7.1-55.64c-1.89-.22-3.74-.53-5.59-.86l-8.49,46.59c-2.85,15.63-16.44,26.98-32.31,26.98h-10.85l31.45-79.37c-1.89-.73-3.76-1.55-5.61-2.4l-19.59,42.19c-5.39,11.6-17,19.02-29.78,19.02h-22.54l53.42-72.25,33.54-45.36-46.67,31.05c-1.06,.7-2.33,1.01-3.59,.87l-7.99-.88-22.21,22.24,12.61,12.3-14.52,14.56v-10.75l-12.49-12.51h-12.02l-12.49,12.51v13.61l-13.59-13.61,12.47-12.51h-13.12l-11.9,11.94v-24.44h55.94l23.78-23.81,.75-10.77c.07-.94,.37-1.84,.89-2.62l37.74-56.92c1.9-2.87,2.23-6.51,.86-9.67l-12.26-28.44h-.02l-7.09,41.08c-2.31,13.38-12.6,23.97-25.89,26.64l-12.78,2.57,19.83-80.8c-2.16-.71-4.35-1.36-6.55-1.98l-17.11,64.81c-3.2,12.12-13,21.36-25.28,23.83l-17.89,3.6,33.26-97.71c-2.3-.35-4.6-.75-6.88-1.2l-30.04,83.49c-3.89,10.82-13.15,18.82-24.42,21.09l-23.92,4.82,51.5-116.85c-2.2-.77-4.35-1.61-6.51-2.49l-49.17,106.44c-4.4,9.52-13.06,16.36-23.32,18.43l-31.37,6.32,78.88-143.53c-2.01-1.16-3.99-2.38-5.94-3.67l-49.17,85.9c-5.08,8.88-14.01,14.89-24.14,16.24l-31.32,4.19,82.38-123.13c-1.75-1.53-3.48-3.12-5.17-4.73l-46.38,66.79c-5.7,8.21-14.83,13.38-24.8,14.04l-30.79,2.03,83.22-103.53c-1.44-1.83-2.85-3.71-4.21-5.6l-46.17,55.45c-6.24,7.49-15.48,11.83-25.22,11.83H0L147.49,101.05c7.94-8.29,18.92-12.98,30.39-12.98h32.89c8.8,0,15.93,7.14,15.93,15.95v18.6c0,14.99,5,28.8,13.4,39.88,12.02,15.87,31.06,26.09,52.48,26.09,4.77,0,9.42-.51,13.9-1.48,3.58-.77,6.46-3.41,7.43-6.94l11.68-42.34c.16-.75,.18-1.55,.06-2.32-.79-5.13-7.73-8.33-15.52-7.13-6.22,.94-11.09,4.42-12.39,8.39,0,0-3.46-6.74-3.54-11.75-.1-6.49,2.69-10.08,8.95-13.24l10.88-5.11c6.86-6.29,18.02-10.39,30.67-10.39,19.47,0,35.5,9.69,37.55,22.2l.2,1.53,7.87,59.4c.56,4.24,3.83,7.63,8.05,8.32,3.46,.56,7,.86,10.62,.86,21.42,0,40.46-10.22,52.48-26.09,8.4-11.08,13.4-24.89,13.4-39.88v-18.6c0-8.81,7.13-15.95,15.93-15.95h32.89c11.47,0,22.45,4.69,30.39,12.98l147.49,153.9h-30.62c-9.74,0-18.98-4.33-25.22-11.82l-46.19-55.46c-1.34,1.89-2.75,3.77-4.19,5.6l83.19,103.53-30.81-2.03c-9.97-.66-19.09-5.82-24.8-14.03l-46.38-66.77Z"/><polygon class="cls-1" points="331.32 60.15 350.81 45.94 370.3 60.15 362.86 37.18 382.35 22.97 358.26 22.97 350.81 0 343.36 22.97 319.26 22.97 338.77 37.18 331.32 60.15"/><polygon class="cls-1" points="428.73 60.71 441.21 81.37 443.23 57.3 466.69 51.76 444.48 42.42 446.5 18.35 430.75 36.65 408.52 27.3 421.02 47.96 405.27 66.26 428.73 60.71"/><polygon class="cls-1" points="258.4 57.33 260.18 81.42 272.86 60.88 296.27 66.65 280.7 48.21 293.38 27.68 271.08 36.8 255.51 18.35 257.29 42.44 234.98 51.57 258.4 57.33"/></g><g><polygon class="cls-1" points="543.23 724.16 549 716.52 550.83 715 550.83 714.72 546.07 714.72 546.07 715 547.43 716.49 542.47 723.08 537.84 716.49 539.2 715 539.2 714.72 532.59 714.72 532.59 715 534.39 716.52 540.66 725.29 534.17 733.81 532.34 735.33 532.34 735.61 537.13 735.61 537.13 735.33 535.77 733.84 541.43 726.37 546.77 733.84 545.41 735.33 545.41 735.61 551.84 735.61 551.84 735.33 550 733.81 543.23 724.16"/><polygon class="cls-1" points="479.92 714.99 481.28 716.5 481.28 731.09 466.94 714.72 462.96 714.72 462.96 714.99 465.37 717.35 465.37 733.83 464.01 735.34 464.01 735.61 468.14 735.61 468.14 735.34 466.78 733.83 466.78 718.93 481.59 735.61 482.69 735.61 482.69 716.5 484.04 714.99 484.04 714.72 479.92 714.72 479.92 714.99"/><polygon class="cls-1" points="527.9 734.42 520.78 734.42 520.78 725.07 527.2 725.07 528.85 726.55 529.12 726.55 529.12 722.43 528.85 722.43 527.2 723.91 520.78 723.91 520.78 715.88 527.27 715.88 529.34 718.51 529.62 718.51 529.62 714.72 516.5 714.72 516.5 714.99 517.86 716.5 517.86 733.83 516.5 735.34 516.5 735.61 530.37 735.61 530.37 731.16 530.09 731.16 527.9 734.42"/><path class="cls-1" d="M453.39,714.72h-3.29l-6.17,19.13-1.34,1.48v.27h4.06v-.27l-1.36-1.51,2.57-8.03,.23,1.05h6.65l2.45,6.97-1.36,1.51v.27h5.63v-.27l-1.35-1.5-6.72-19.12Zm-5.5,10.98l3.07-9.59,3.36,9.59h-6.44Z"/><path class="cls-1" d="M619.12,730.75l-3.01-5.09c.64-.34,1.2-.78,1.65-1.29,1.55-1.78,1.94-4.25,1-6.31-.97-2.12-3.1-3.34-5.87-3.34h-7.1v.27l1.36,1.51v17.33l-1.36,1.51v.27h5.63v-.27l-1.36-1.51v-8.37l.56,.96h2.39c.1,0,.19,0,.33-.02l3.35,5.78c2.28,4.03,4.64,3.82,6.73,3.41v-.28c-.78-.24-2.05-.76-4.31-4.57Zm-6.26-5.38h-2.79v-9.55h1.95c3.19,0,4.43,2.54,4.43,4.8s-1.25,4.75-3.58,4.75Z"/><path class="cls-1" d="M503.39,717.35c-2.09-1.7-5.04-2.63-8.3-2.63h-7.69v.27l1.36,1.51v17.33l-1.36,1.51v.27h8.51c6.44,0,10.95-4.36,10.95-10.6,0-3.17-1.2-5.81-3.46-7.65Zm-1.94,14.6c-1.39,1.66-3.33,2.53-5.6,2.53s-3.6-.45-4.17-.73v-17.91h3.36c5.06,0,8.6,3.78,8.6,9.19,0,2.83-.75,5.22-2.18,6.91Z"/><path class="cls-1" d="M695.62,723.45c-2.4-1.67-3.99-2.78-3.99-5.03,0-1.73,1.27-2.89,3.17-2.89,.92,0,2.56,.22,4.01,2.54h.25v-3.05c-.29-.11-1.66-.65-4.08-.65-3.58,0-5.9,1.94-5.9,4.95,0,2.71,1.71,4.38,4.86,6.51,2.66,1.75,3.93,2.99,3.93,5.28,0,2.07-1.54,3.58-3.67,3.58-2.79,0-4.46-1.89-5.41-5.36h-.32v5.09c.96,.6,2.86,1.49,5.74,1.49,3.79,0,6.34-2.33,6.34-5.8,0-3.09-2.28-4.75-4.92-6.67Z"/><path class="cls-1" d="M560.02,726.34v.39c4.94,.06,8.5-2.01,8.5-6.18,0-3.6-2.79-5.83-7.28-5.83h-6.82v.27l1.36,1.51v17.33l-1.36,1.51v.27h5.63v-.27l-1.36-1.51v-18.02s0,0,0,0h1.41c3.4,0,5.43,1.91,5.43,5.12,0,1.06-.24,4.62-5.52,5.41Z"/><polygon class="cls-1" points="683.51 734.42 676.39 734.42 676.39 725.07 682.82 725.07 684.47 726.55 684.74 726.55 684.74 722.43 684.47 722.43 682.82 723.91 676.39 723.91 676.39 715.88 682.89 715.88 684.96 718.51 685.24 718.51 685.24 714.72 672.12 714.72 672.12 714.99 673.48 716.5 673.48 733.83 672.12 735.34 672.12 735.61 685.99 735.61 685.99 731.16 685.71 731.16 683.51 734.42"/><path class="cls-1" d="M578.17,714.72h-3.29l-6.17,19.13-1.34,1.48v.27h4.06v-.27l-1.36-1.51,2.57-8.03,.23,1.05h6.65l2.45,6.97-1.36,1.51v.27h5.63v-.27l-1.35-1.5-6.72-19.12Zm-5.5,10.98l3.07-9.59,3.36,9.59h-6.44Z"/><path class="cls-1" d="M644.5,714.72h-3.29l-6.17,19.13-1.34,1.48v.27h4.06v-.27l-1.36-1.51,2.57-8.03,.23,1.05h6.65l2.45,6.97-1.36,1.51v.27h5.63v-.27l-1.35-1.5-6.72-19.12Zm-5.5,10.98l3.07-9.59,3.36,9.59h-6.44Z"/><polygon class="cls-1" points="625.41 714.99 626.76 716.5 626.76 733.83 625.41 735.34 625.41 735.61 631.04 735.61 631.04 735.34 629.68 733.83 629.68 716.5 631.04 714.99 631.04 714.72 625.41 714.72 625.41 714.99"/><polygon class="cls-1" points="585.05 718.51 585.33 718.51 587.4 715.88 592.61 715.88 592.61 733.83 591.25 735.34 591.25 735.61 596.88 735.61 596.88 735.34 595.52 733.83 595.52 715.88 600.76 715.88 602.84 718.51 603.11 718.51 603.11 714.72 585.05 714.72 585.05 718.51"/><polygon class="cls-1" points="651.38 718.51 651.66 718.51 653.73 715.88 658.94 715.88 658.94 733.83 657.58 735.34 657.58 735.61 663.22 735.61 663.22 735.34 661.86 733.83 661.86 715.88 667.1 715.88 669.17 718.51 669.45 718.51 669.45 714.72 651.38 714.72 651.38 718.51"/><path class="cls-1" d="M429.53,723.44c-2.4-1.67-3.98-2.77-3.98-5.02,0-1.72,1.27-2.88,3.17-2.88,.92,0,2.56,.22,4.01,2.54h.25v-3.05c-.29-.11-1.66-.64-4.07-.64-3.58,0-5.89,1.94-5.89,4.95,0,2.71,1.7,4.37,4.85,6.5,2.66,1.75,3.92,2.99,3.92,5.27,0,2.07-1.54,3.57-3.67,3.57-2.78,0-4.46-1.89-5.4-5.36h-.32v5.08c.96,.6,2.85,1.49,5.73,1.49,3.78,0,6.33-2.33,6.33-5.79,0-3.09-2.28-4.74-4.91-6.66Z"/><path class="cls-1" d="M334.13,714.72h-3.28l-6.17,19.1-1.34,1.48v.27h4.05v-.27l-1.36-1.5,2.57-8.01,.23,1.05h6.64l2.44,6.96-1.36,1.5v.27h5.62v-.27l-1.35-1.5-6.71-19.09Zm-5.49,10.96l3.07-9.58,3.36,9.58h-6.43Z"/><path class="cls-1" d="M383.95,714.72h-3.28l-6.17,19.1-1.34,1.48v.27h4.05v-.27l-1.36-1.5,2.57-8.01,.23,1.05h6.64l2.44,6.96-1.36,1.5v.27h5.62v-.27l-1.35-1.5-6.71-19.09Zm-5.49,10.96l3.07-9.58,3.36,9.58h-6.43Z"/><path class="cls-1" d="M417.17,730.73l-3.01-5.08c.64-.34,1.19-.78,1.64-1.29,1.54-1.77,1.94-4.25,1-6.3-.96-2.12-3.1-3.33-5.86-3.33h-7.09v.27l1.36,1.5v17.31l-1.36,1.5v.27h5.62v-.27l-1.36-1.5v-8.35l.56,.96h2.39c.1,0,.19,0,.33-.02l3.35,5.77c2.28,4.03,4.64,3.82,6.72,3.4v-.28c-.78-.24-2.05-.76-4.3-4.56Zm-6.25-5.38h-2.79v-9.54h1.94c3.18,0,4.42,2.53,4.42,4.8s-1.25,4.74-3.57,4.74Z"/><polygon class="cls-1" points="344.42 714.99 345.78 716.5 345.78 733.8 345.78 733.8 344.42 735.31 344.42 735.31 344.42 735.58 344.42 735.58 350.04 735.58 350.04 735.31 348.69 733.8 348.69 725.05 355.1 725.05 356.75 726.54 357.02 726.54 357.02 722.42 356.75 722.42 355.1 723.9 348.69 723.9 348.69 715.88 355.17 715.88 357.24 718.51 357.52 718.51 357.52 714.72 344.42 714.72 344.42 714.99"/><polygon class="cls-1" points="360.41 714.99 361.77 716.5 361.77 733.8 361.77 733.8 360.41 735.31 360.41 735.31 360.41 735.58 360.41 735.58 366.03 735.58 366.03 735.31 364.68 733.8 364.68 725.05 371.09 725.05 372.74 726.54 373.01 726.54 373.01 722.42 372.74 722.42 371.1 723.9 364.68 723.9 364.68 715.88 371.16 715.88 373.23 718.51 373.51 718.51 373.51 714.72 360.41 714.72 360.41 714.99"/><polygon class="cls-1" points="394.72 714.99 396.08 716.5 396.08 733.8 394.72 735.31 394.72 735.58 400.35 735.58 400.35 735.31 398.99 733.8 398.99 716.5 400.35 714.99 400.35 714.72 394.72 714.72 394.72 714.99"/><path class="cls-1" d="M75.97,723.44c-2.4-1.67-3.98-2.77-3.98-5.02,0-1.72,1.27-2.88,3.17-2.88,.92,0,2.56,.22,4.01,2.54h.25v-3.05c-.29-.11-1.66-.64-4.07-.64-3.58,0-5.89,1.94-5.89,4.95,0,2.71,1.7,4.37,4.85,6.5,2.66,1.75,3.92,2.99,3.92,5.27,0,2.07-1.54,3.57-3.67,3.57-2.78,0-4.46-1.89-5.4-5.36h-.32v5.08c.96,.6,2.85,1.49,5.73,1.49,3.78,0,6.33-2.33,6.33-5.79,0-3.09-2.28-4.74-4.91-6.66Z"/><polygon class="cls-1" points="53.5 714.99 54.86 716.5 54.86 731.06 40.54 714.72 36.57 714.72 36.57 714.99 38.98 717.34 38.98 733.8 37.62 735.31 37.62 735.58 41.74 735.58 41.74 735.31 40.39 733.8 40.39 718.92 55.18 735.58 56.27 735.58 56.27 716.5 57.62 714.99 57.62 714.72 53.5 714.72 53.5 714.99"/><polygon class="cls-1" points="310.29 714.99 311.65 716.5 311.65 731.06 297.33 714.72 293.35 714.72 293.35 714.99 295.76 717.34 295.76 733.8 294.41 735.31 294.41 735.58 298.53 735.58 298.53 735.31 297.17 733.8 297.17 718.92 311.96 735.58 313.05 735.58 313.05 716.5 314.41 714.99 314.41 714.72 310.29 714.72 310.29 714.99"/><polygon class="cls-1" points="258.9 734.39 251.79 734.39 251.79 725.05 258.21 725.05 259.85 726.54 260.13 726.54 260.13 722.42 259.85 722.42 258.21 723.9 251.79 723.9 251.79 715.88 258.28 715.88 260.35 718.51 260.63 718.51 260.63 714.72 247.53 714.72 247.53 714.99 248.88 716.5 248.88 733.8 247.53 735.31 247.53 735.58 261.38 735.58 261.38 731.13 261.1 731.13 258.9 734.39"/><polygon class="cls-1" points="131.54 714.99 132.9 716.5 127.88 724.19 122.87 716.5 124.23 714.99 124.23 714.72 117.77 714.72 117.77 714.99 119.5 716.51 125.69 725.74 125.69 733.8 124.33 735.31 124.33 735.58 129.96 735.58 129.96 735.31 128.6 733.8 128.59 725.24 134.31 716.52 136.09 714.99 136.09 714.72 131.54 714.72 131.54 714.99"/><path class="cls-1" d="M115.99,730.73l-3.01-5.08c.64-.34,1.19-.78,1.64-1.29,1.54-1.77,1.94-4.25,1-6.3-.96-2.12-3.1-3.33-5.86-3.33h-7.09v.27l1.36,1.5v17.31l-1.36,1.5v.27h5.62v-.27l-1.36-1.5v-8.35l.56,.96h2.39c.1,0,.19,0,.33-.02l3.35,5.77c2.28,4.03,4.64,3.82,6.72,3.4v-.28c-.78-.24-2.05-.76-4.3-4.56Zm-6.25-5.38h-2.79v-9.54h1.94c3.18,0,4.42,2.53,4.42,4.8s-1.25,4.74-3.57,4.74Z"/><path class="cls-1" d="M241.25,730.73l-3.01-5.08c.64-.34,1.19-.78,1.64-1.29,1.54-1.77,1.94-4.25,1-6.3-.96-2.12-3.1-3.33-5.86-3.33h-7.09v.27l1.36,1.5v17.31l-1.36,1.5v.27h5.62v-.27l-1.36-1.5v-8.35l.56,.96h2.39c.1,0,.19,0,.33-.02l3.35,5.77c2.28,4.03,4.64,3.82,6.72,3.4v-.28c-.78-.24-2.05-.76-4.3-4.56Zm-6.25-5.38h-2.79v-9.54h1.94c3.18,0,4.42,2.53,4.42,4.8s-1.25,4.74-3.57,4.74Z"/><path class="cls-1" d="M154.34,714.38c-5.81,0-10.37,4.73-10.37,11.02s4.46,10.52,10.37,10.52,10.4-4.81,10.4-10.96-4.47-10.59-10.4-10.59Zm0,20.36c-4.14,0-7.14-4.02-7.14-9.56s3-9.62,7.14-9.62,7.21,4.05,7.21,9.62-3.03,9.56-7.21,9.56Z"/><path class="cls-1" d="M215.35,714.38c-5.81,0-10.37,4.73-10.37,11.02s4.46,10.52,10.37,10.52,10.4-4.81,10.4-10.96-4.47-10.59-10.4-10.59Zm0,20.36c-4.14,0-7.14-4.02-7.14-9.56s3-9.62,7.14-9.62,7.21,4.05,7.21,9.62-3.03,9.56-7.21,9.56Z"/><polygon class="cls-1" points="166.9 714.99 168.26 716.5 168.26 733.8 168.26 733.8 166.9 735.31 166.9 735.31 166.9 735.58 166.9 735.58 172.53 735.58 172.53 735.31 171.17 733.8 171.17 725.05 177.59 725.05 179.23 726.54 179.5 726.54 179.5 722.42 179.23 722.42 177.59 723.9 171.17 723.9 171.17 715.88 177.66 715.88 179.73 718.51 180 718.51 180 714.72 166.9 714.72 166.9 714.99"/><polygon class="cls-1" points="190.02 714.99 191.38 716.5 191.38 733.8 191.38 733.8 190.02 735.31 190.02 735.31 190.02 735.58 190.02 735.58 195.64 735.58 195.64 735.31 194.29 733.8 194.29 725.05 200.71 725.05 202.35 726.54 202.62 726.54 202.62 722.42 202.35 722.42 200.71 723.9 194.29 723.9 194.29 715.88 200.78 715.88 202.84 718.51 203.12 718.51 203.12 714.72 190.02 714.72 190.02 714.99"/><path class="cls-1" d="M285.68,724.96l2.12,1.5v7.11c-1.16,.72-2.69,1.13-4.23,1.13-5.16,0-8.33-4.52-8.33-9.71,0-4.2,2.19-9.43,8.02-9.43,1.34,0,4.06,.22,6.24,3.2h.25v-3.46c-1.97-.45-3.81-.92-6.48-.92-7.32,0-11.24,5.48-11.24,10.8,0,6.32,4.69,10.74,11.4,10.74,3.3,0,5.91-1.29,7.25-1.73h.04s0-.01,0-.01v-7.72s1.36-1.5,1.36-1.5v-.27h-6.39v.27Z"/><polygon class="cls-1" points="28.24 714.99 29.59 716.5 29.59 733.8 28.24 735.31 28.24 735.58 33.86 735.58 33.86 735.31 32.5 733.8 32.5 716.5 33.86 714.99 33.86 714.72 28.24 714.72 28.24 714.99"/><polygon class="cls-1" points="60.68 714.99 62.04 716.5 62.04 733.8 60.68 735.31 60.68 735.58 66.3 735.58 66.3 735.31 64.95 733.8 64.95 716.5 66.3 714.99 66.3 714.72 60.68 714.72 60.68 714.99"/><polygon class="cls-1" points="264.31 714.99 265.67 716.5 265.67 733.8 264.31 735.31 264.31 735.58 269.94 735.58 269.94 735.31 268.58 733.8 268.58 716.5 269.94 714.99 269.94 714.72 264.31 714.72 264.31 714.99"/><polygon class="cls-1" points="13.64 729.91 5.65 714.75 5.63 714.72 2.31 714.72 2.31 714.99 3.53 717.26 3.53 733.8 2.17 735.31 2.17 735.58 6.29 735.58 6.29 735.31 4.93 733.8 4.93 719.43 12.6 733.76 12.96 733.76 20.69 719.19 20.69 733.8 19.33 735.31 19.33 735.58 24.96 735.58 24.96 735.31 23.6 733.8 23.6 716.5 24.96 714.99 24.96 714.72 21.59 714.72 13.64 729.91"/><polygon class="cls-1" points="81.97 718.51 82.25 718.51 84.31 715.88 89.52 715.88 89.52 733.8 88.16 735.31 88.16 735.58 93.78 735.58 93.78 735.31 92.43 733.8 92.43 715.88 97.66 715.88 99.73 718.51 100.01 718.51 100.01 714.72 81.97 714.72 81.97 718.51"/></g><path class="cls-2" d="M554.63,650.52c.94-.08,1.96-.2,2.95-.55,2.17-.75,4.15-1.91,6.1-3.13,1.15-.72,2.2-1.6,3.21-2.52,.53-.48,.55-.66,.19-1.27-1.33-2.21-2.93-4.2-4.87-5.84-1.3-1.1-2.69-2.08-3.95-3.24-.51-.46-.65-.47-1.02,.1-1.71,2.6-4.93,7.99-6.07,11.93-.33,2.09,1.58,4.25,3.46,4.51m-4.39-34.41c2.79,2.82,5.57,5.64,8.91,7.89,.71-1.05,1.42-2.05,2.08-3.1,4.29-6.76,7.82-13.6,11.02-20.98,.23,.19,.17,.41,.16,.61,.7,3.76-2.25,11.94-5.38,18.12-.37,.74-4.2,7.43-4.61,8.05-.1,.14,.42,.38,.7,.59,1.63,1.23,3.18,2.57,4.43,4.21,3.5,4.6,3.73,11.41,1.97,16.84-.72,2.22-2.11,3.68-5.35,6.1-4.27,3.2-10.02,6.03-12.77,4.61-2.86-1.47-3.62-6.15-3.08-10.86,.24-5.89,3.72-12.88,6.07-16.95,0-.05-4.27-3.78-7.33-7.53-.71-.87-1.37-2.08-2.02-3.23-.86-1.52-1.71-2.94-2.65-3.36-.76-.33-1.4-.35-1.29-1.23,.03-.29,.61-7.73,.78-8.74,1,.59,7.57,4.22,8.57,4.84,1.15,.71,2.35,1.36,3.4,2.23,1.27,1.05,.48,2.28-.76,2.06-.92-.16-1.84-.35-2.85-.18Zm38.81,84.6c.05,.15-.07,.17-.16,.17-.09,0-.21-.04-.26-.11-.07-.09,0-.19,.1-.22,.15-.05,.25,.04,.32,.16Zm90.52-81.28c-3.3-.27-8.72,1.05-11.1-.98,0,0,1.33-2.81,3.35-3.3,2.25-.55,6.22,2.53,7.76,4.28Zm-9.68,9.4c-4.27-.73-6.78-4.53-6.68-8.76,.09-3.75,1.61-7.74,4.34-10.64,5.49-5.85,11.26-4.01,16.52,1.63,5.64,6.04,8.89,16.1,7.89,25.06-.39,3.5-1.49,6.62-3.03,9.49-4.04,7.54-41.7,30.25-50.66,31.58-1.79,.27-23.48,5.17-32.84,7.33-9.36,2.17-2.85-1.06,10.59-6.13,8.79-3.32,16.63-6.78,24.06-10.25,10.65-4.96,42.7-23.1,49.98-31.89-2.44-8.95-13.01-6.2-20.18-7.43Zm-71.81,25.06c-6.9,8.09-34.26,23.48-45.48,24.89-6.85,.86-30.46,6.9-32.59,5.94-.89-.4,3.13-2.28,15.78-6.74,20.4-7.19,49.17-19.4,62.98-33.32,0-.02-.02-.05-.02-.05-.1-.26-.47-1.2-.94-2.25-.61-1.25-1.24-2.56-1.86-3.9-3.22-6.9-4.9-11.19-7.05-18.63-.73-2.53-.4-2.01-2.16-3.85l3.23-9.57h.25s.61,.83,.61,.83c.89,1.34,9.42,12.38,8.99,14.12-.02,.96-3.4-1.22-4.22-1.26,.62,5.78,5.9,9.62,5.96,18.26,.02,2.58-.08,4.89-.45,7.1-.47,2.83-1.38,5.5-3.03,8.43Zm12.35-86.28c-.11,.36,.14,2.73,.53,5.86,.87,6.99,2.06,19.64,3.5,33.34,2.35,22.53,5.85,46.6-1.62,55.5,.03-17.61-2.04-35.26-3.84-52.89-1.79-17.44-3.3-34.86-4.75-52.2-.05-.6-.71-1.36-1.07-1.81,.26-1.08,2.75-6.98,3.16-7.75,2,5,10.38,22.12,9.38,24.2-.67,1.4-4.76-3.76-5.27-4.25Zm-44.59,22.19c.03,.34-.08,.66-.25,.95-1.09,1.92-2.18,3.83-3.27,5.75-.08,.14-.16,.29-.26,.42-.34,.47-.77,.62-1.29,.43-1.89-.81-5.15-3.29-7.24-4.59-.64-.4-.91-.67-.88-1.1-.04,.1-.09,.2-.14,.29-1.09,1.92-2.18,3.83-3.27,5.75-.08,.14-.16,.29-.26,.42-.34,.47-.77,.62-1.29,.43-1.89-.81-5.15-3.29-7.24-4.59-1-.62-1.09-.92-.55-2.03,.37-.74,.77-1.46,1.17-2.19,.64-1.16,1.29-2.31,1.93-3.47,.13-.24,.27-.48,.43-.7,.37-.48,.75-.55,1.29-.21,1.3,.82,2.57,1.71,3.91,2.47,1.3,.74,2.53,1.55,3.69,2.48,.23,.18,.39,.38,.42,.67,0,.08,0,.16,0,.23,.06-.15,.13-.31,.22-.5,.37-.74,.77-1.46,1.17-2.19,.64-1.16,1.29-2.31,1.93-3.47,.13-.24,.27-.48,.43-.7,.37-.48,.75-.55,1.29-.21,1.3,.82,2.57,1.71,3.91,2.47,1.3,.74,2.53,1.55,3.69,2.48,.23,.18,.39,.38,.42,.67Zm78.64,1.14c.03,.34-.08,.66-.25,.95-1.09,1.92-2.18,3.83-3.27,5.75-.08,.14-.16,.29-.26,.42-.34,.47-.77,.62-1.29,.43-1.89-.81-5.15-3.29-7.24-4.59-1-.62-1.09-.92-.55-2.03,.37-.74,.77-1.46,1.17-2.19,.64-1.16,1.29-2.31,1.93-3.47,.13-.24,.27-.48,.43-.7,.37-.48,.75-.55,1.29-.21,1.3,.82,2.57,1.71,3.91,2.47,1.3,.74,2.53,1.55,3.69,2.48,.23,.18,.39,.38,.42,.67Zm-84.38-34.08s-2.73-1.91-3.83-3.03c-.97-.99-1.16-2.22-1.16-2.22,0,0,2.44-1.46,3.87-.42,2.56,2.03,1.13,5.67,1.12,5.67Zm1.36,6.6c-.76-.85-2.28-2.19-2.28-2.19-5.46,9.21-19.94,18.39-29.7,22.57,0,0-3.48,1.12-3.22,.54,.3-.66,4.51-2.76,4.51-2.76,9.74-5.77,19.56-12.78,27.41-20.98-2.14-1.36-5.96-4.03-5.21-6.9,.23-.87,.59-1.98,1.28-3.02,1.63-2.44,4.39-4.64,6.54-3.45,3.57,2.17,1.68,7.45,.56,10.59,0,0,2.05,1.12,2.42,2.67,.33,1.36-1.64,4.17-1.64,4.17,0,0-.42-.96-.67-1.24Zm137.58,22.57c-5.83,1.2-38.96,16.7-42.62,19.71-.08-.29,1.21-3.66,1.41-3.95,3.83-3.25,39.19-19.16,42.72-19.03-1.12,2.45-1.3,2.95-1.51,3.27Zm-27.21-29.89c-7.09,1.46-47.39,20.32-51.85,23.97-.09-.35,1.47-4.45,1.72-4.81,4.66-3.95,47.67-23.3,51.96-23.15-1.36,2.98-1.58,3.59-1.84,3.98Zm-70.53,30.14c-5.12,1.05-26.51,10.9-29.72,13.54-.07-.25,1.06-3.22,1.24-3.47,3.37-2.85,26.71-13.06,29.81-12.94-.99,2.15-1.14,2.59-1.32,2.87Zm40.65,67.6c-6.9,8.09-36.16,23.48-47.39,24.89-6.85,.86-30.46,6.9-32.59,5.94-.89-.4,3.13-2.28,15.78-6.74,20.4-7.19,51.08-19.4,64.89-33.32,0-.02-.02-.05-.02-.05-.1-.26-.47-1.2-.94-2.25-.61-1.25-1.24-2.56-1.86-3.9-3.22-6.9-4.9-11.19-7.05-18.63-.73-2.53-.4-2.01-2.16-3.85l3.23-9.57h.25s.61,.83,.61,.83c.89,1.34,9.42,12.38,8.99,14.12-.02,.96-3.4-1.22-4.22-1.26,.62,5.78,5.9,9.62,5.96,18.26,.02,2.58-.08,4.89-.45,7.1-.47,2.83-1.38,5.5-3.03,8.43Zm-152.39-18.85c.02,.32-.08,.61-.23,.88-1.01,1.78-2.03,3.57-3.04,5.35-.08,.13-.15,.27-.24,.39-.31,.43-.72,.58-1.2,.4-1.76-.75-4.79-3.06-6.74-4.27-.94-.58-1.02-.86-.51-1.89,.34-.69,.72-1.36,1.09-2.03,.6-1.08,1.2-2.15,1.8-3.23,.13-.22,.25-.45,.4-.65,.35-.45,.7-.51,1.2-.19,1.21,.77,2.39,1.6,3.64,2.3,1.21,.68,2.36,1.44,3.43,2.31,.21,.17,.36,.35,.39,.63Zm-105.79,42.09c.02,.32-.08,.61-.23,.88-1.01,1.78-2.03,3.57-3.04,5.35-.08,.13-.15,.27-.24,.39-.31,.43-.72,.58-1.2,.4-1.76-.75-4.79-3.06-6.74-4.27-.94-.58-1.02-.86-.51-1.89,.34-.69,.72-1.36,1.09-2.03,.59-1.08,1.2-2.15,1.8-3.23,.13-.22,.25-.45,.4-.65,.35-.45,.7-.51,1.2-.19,1.21,.77,2.39,1.6,3.64,2.3,1.21,.68,2.36,1.44,3.43,2.31,.21,.17,.36,.35,.39,.63Zm-38.98,.64c.02,.32-.08,.61-.23,.88-1.01,1.78-2.03,3.57-3.04,5.35-.08,.13-.15,.27-.24,.39-.31,.43-.72,.58-1.2,.4-1.76-.75-4.79-3.06-6.74-4.27-.94-.58-1.02-.86-.51-1.89,.34-.69,.72-1.36,1.09-2.03,.6-1.08,1.2-2.15,1.8-3.23,.13-.22,.25-.45,.4-.65,.35-.45,.7-.51,1.2-.19,1.21,.77,2.39,1.6,3.64,2.3,1.21,.68,2.36,1.44,3.43,2.31,.21,.17,.36,.35,.39,.63Zm12.44-.69c.02,.32-.08,.61-.23,.88-1.01,1.78-2.03,3.57-3.04,5.35-.08,.13-.15,.27-.24,.39-.31,.43-.72,.58-1.2,.4-1.76-.75-4.79-3.06-6.74-4.27-.94-.58-1.02-.86-.51-1.89,.34-.69,.72-1.36,1.09-2.03,.6-1.08,1.2-2.15,1.8-3.23,.13-.22,.25-.45,.4-.65,.35-.45,.7-.51,1.2-.19,1.21,.77,2.39,1.6,3.64,2.3,1.21,.68,2.36,1.44,3.43,2.31,.21,.17,.36,.35,.39,.63Zm-115.3-28.85c-1.17-.03-2.75,.23-3.59,.57-.17,.07-.23,.28-.09,.41,.36,.31,.6,.72,.93,1.04,1.8,1.73,4.51,3.37,7.12,3.15,.87-.07,1.65-.4,2.27-1.02,.55-.54,.56-.69,.09-1.28-.51-.64-1.11-1.17-1.83-1.57-1.55-.88-3.21-1.32-4.9-1.29Zm-34.53-12.54c-1.59-1.07-12.15-2.95-16.67-1.64,1.63,.97,5.96,5.5,6.77,6.48,3.61-1.73,6.26-3.49,9.9-4.84Zm21.97,7.88l-.05-.21c-3.64-16.43-7.26-68.86-7.28-86.41,0-.61-.45-1.67-.81-2.13,.3-1.09,3.02-6.97,3.47-7.73,2.23,6.92,12.54,31.29,5.98,23.83-1.79-2.03-2.23-2.88-2.81-3.47-.51,2.47,2.43,35.76,3.37,46.44,1.16,13.08,3.03,26.65,3.63,27.23,.1-.02,.23-.06,.42-.12,1.58-.5,3.17-.98,4.78-1.39,3.06-.79,5.94-.4,8.57,1.34,1.96,1.29,3,3.18,3.33,5.51,.71,5.1-1.47,13.95-7.12,15.47-3.79,1.02-7.71-1.83-10.01-4.51-1.76-2.04-3.25-4.5-3.74-6.31-5.24,1.97-8.6,4.05-16.07,6.57-9.19,2.52-14.25,.15-19.96-7.38-7.97,3.82-15,10.43-25.62,11.04-5.25,.31-8.88-3.09-10.94-11.66-1.69-7.01-.65-15.23-3.2-17.72-.2,.32-.29,.67-.36,1.04-.35,1.7-.54,3.85-.96,5.53-.83,3.27-2.8,5.37-5.76,7.07-1.07,.61-2.14,1.21-3.28,1.67-.36,.14-.51,.39-.47,.79,.32,3.11,.08,6.4-.27,9.51-.22,1.98-1.8,7.41-3.16,8.87-6.88,7.41-21.92,16.57-30.13,17.93-6.89,1.51-11.47-2.08-11.47-2.08,0,0-3.34-2.54-4.67-6.84-3.83-12.43,7.08-31.75,2.96-19.16-1.39,4.84-1.55,11.98,1.73,16.07,9.8,12.22,35.3-6.04,42.54-15.18-.61-4.99-3.16-11.03-6.74-14.72-.53-.54-.66-1.1-.56-1.84,.31-2.13,.63-4.26,1.19-6.35,.08-.28,.16-.57,.27-.84,.5-1.23,2.64,2.36,2.87,2.7,1.46,2.17,2.23,3.06,3.45,3.14,2.42,.16,7.17-2.27,8.84-4.04,1.33-1.41,2.22-3.2,2.55-5.41,.21-1.15,1.11-8.41,2.19-8.56,1.3-.18,3.18,5.43,3.53,6.62,.9,3.11,1.24,5.96,1.62,8.88,.33,2.54,.69,5.14,1.49,8.02,4.01,14.53,20.45,4.24,27.81-.52-4.46-4.69-11.87-10.99-18.02-5.78,.55-2.35,2.32-8,3.17-8.72,10.93-8.12,36.31-4.14,45.24,1.8-.68,1.98-2.98,7.2-3.35,8.17-2.12,.7-14.4,5.08-15.64,6.24,.43,.59,.94,1.2,1.49,1.71,2.35,2.16,7.85,2.52,10.9,1.72,4.78-1.26,10.68-3.74,15.05-5.82Zm-136.52-20.23c-.2,.32-.29,.67-.36,1.04-.35,1.7-.54,3.85-.96,5.53-.83,3.27-2.8,5.37-5.76,7.07-1.07,.61-2.14,1.21-3.28,1.67-.36,.14-.51,.39-.47,.79,.07,.72,.07,1.43,.21,2.15,.14,.74,.13,1.52,.19,2.28,.29,3.62-.26,7.16-1.05,10.68-.25,1.12-.62,2.19-1.04,3.26-.81,2.06-3.92,4.89-7.8,7.79-6.78,5.05-15.92,10.3-19.35,11.92-3.95,1.87-8.07,3.32-12.29,4.45-29.77,7.95-41.79-15.54-30-40.52,.38-.81,2.1-4.23,3.13-4.11,.28,.03,.34,.66,.1,1.27-1.92,4.63-3.28,6.72-3.9,12.24-1.39,12.39,5.04,23.88,21.18,23.86,2.58,0,5.17-.36,7.96-.97,3.27-.72,6.46-1.74,9.62-2.84,1.2-.42,2.37-.91,3.53-1.45,9.02-4.15,14.12-7.46,22.16-13.5,1.5-1.12,2.85-2.4,4.2-3.69,.56-.53,.82-1.09,.74-1.9-.48-5.09-3.09-12.71-6.79-16.53-.53-.55-.66-1.11-.56-1.84,.31-2.13,.63-4.26,1.19-6.35,.08-.28,.16-.57,.27-.84,.5-1.23,2.64,2.36,2.87,2.7,1.46,2.17,2.23,3.06,3.45,3.14,2.42,.16,7.17-2.27,8.84-4.04,1.33-1.41,2.22-3.2,2.55-5.41,.21-1.15,1.11-8.41,2.19-8.56,1.3-.18,3.18,5.43,3.52,6.62,.9,3.11,1.24,5.95,1.62,8.88,.33,2.54,.69,5.14,1.49,8.02,.4,1.46,.99,2.86,1.73,4.08,2.94,4.87,9.56,2.11,12.71-1.62,.14-1.25-5.54-9.72-6.29-10.5,.04-1.09,1.22-7.32,1.59-8.44,.16-.05,.34,0,.52,.19,6.2,6.44,8.59,17.36,5.61,25.51-2.2,5.94-13.71,9.73-17.85,2-3.54-7.19-3.17-21.83-5.43-24.03Zm238.47,4.43c-.01,.32-.15,.6-.33,.85-1.21,1.65-2.43,3.3-3.65,4.96-.09,.12-.18,.25-.28,.36-.36,.39-.78,.49-1.24,.26-1.66-.96-4.4-3.61-6.19-5.03-.48-.38-.7-.64-.71-.95-.05,.12-.12,.23-.2,.34-1.21,1.65-2.43,3.3-3.65,4.96-.09,.12-.18,.25-.28,.36-.36,.39-.78,.49-1.24,.26-1.66-.96-4.4-3.61-6.19-5.03-.86-.69-.91-.97-.29-1.93,.42-.64,.87-1.27,1.32-1.89,.72-1,1.44-2,2.17-2.99,.15-.21,.3-.42,.48-.6,.4-.41,.76-.42,1.22-.05,1.12,.9,2.19,1.87,3.34,2.71,1.12,.82,2.17,1.71,3.14,2.7,.19,.19,.32,.39,.32,.67v.04c.07-.15,.17-.31,.29-.51,.42-.64,.87-1.27,1.32-1.89,.72-1,1.44-2,2.17-2.99,.15-.21,.3-.42,.48-.6,.4-.41,.76-.42,1.22-.05,1.12,.9,2.19,1.87,3.35,2.71,1.12,.82,2.17,1.71,3.14,2.7,.19,.19,.32,.39,.32,.67Zm-256.61,48.79c.02,.32-.08,.61-.23,.88-1.01,1.78-2.03,3.57-3.04,5.35-.08,.13-.15,.27-.24,.39-.31,.43-.72,.58-1.2,.4-1.76-.75-4.79-3.06-6.74-4.27-.94-.58-1.02-.86-.51-1.89,.34-.69,.72-1.36,1.09-2.03,.6-1.08,1.2-2.15,1.8-3.23,.13-.22,.25-.45,.4-.65,.35-.45,.7-.51,1.2-.19,1.21,.77,2.39,1.6,3.64,2.3,1.21,.68,2.36,1.44,3.43,2.31,.21,.17,.36,.35,.39,.63Zm12.44-.69c.02,.32-.08,.61-.23,.88-1.01,1.78-2.03,3.57-3.04,5.35-.08,.13-.15,.27-.24,.39-.31,.43-.72,.58-1.2,.4-1.76-.75-4.79-3.06-6.74-4.27-.94-.58-1.02-.86-.51-1.89,.34-.69,.72-1.36,1.09-2.03,.6-1.08,1.2-2.15,1.8-3.23,.13-.22,.25-.45,.4-.65,.35-.45,.7-.51,1.2-.19,1.21,.77,2.39,1.6,3.64,2.3,1.21,.68,2.36,1.44,3.43,2.31,.21,.17,.36,.35,.39,.63Zm113.46-65.88c.02,.32-.08,.61-.23,.88-1.01,1.78-2.03,3.57-3.04,5.35-.08,.13-.15,.27-.24,.39-.31,.43-.72,.58-1.2,.4-1.76-.75-4.79-3.06-6.74-4.27-.94-.58-1.02-.86-.51-1.89,.34-.69,.72-1.36,1.09-2.03,.6-1.08,1.2-2.15,1.8-3.23,.13-.22,.25-.45,.4-.65,.35-.45,.7-.51,1.2-.19,1.21,.77,2.39,1.6,3.64,2.3,1.21,.68,2.36,1.44,3.43,2.31,.21,.17,.36,.35,.39,.63Zm-138.27,37.21c.02,.32-.08,.61-.23,.88-1.01,1.78-2.03,3.57-3.04,5.35-.08,.13-.15,.27-.24,.39-.31,.43-.72,.58-1.2,.4-1.76-.75-4.79-3.06-6.74-4.27-.94-.58-1.02-.86-.51-1.89,.34-.69,.72-1.36,1.09-2.03,.6-1.08,1.2-2.15,1.8-3.23,.13-.22,.25-.45,.4-.65,.35-.45,.7-.51,1.2-.19,1.21,.77,2.39,1.6,3.64,2.3,1.21,.68,2.36,1.44,3.43,2.31,.21,.17,.36,.35,.39,.63Zm53.16,15.72c.02,.32-.08,.61-.23,.88-1.01,1.78-2.03,3.57-3.04,5.35-.08,.13-.15,.27-.24,.39-.31,.43-.72,.58-1.2,.4-1.76-.75-4.79-3.06-6.74-4.27-.94-.58-1.02-.86-.51-1.89,.34-.69,.72-1.36,1.09-2.03,.6-1.08,1.2-2.15,1.8-3.23,.13-.22,.25-.45,.4-.65,.35-.45,.7-.51,1.2-.19,1.21,.77,2.39,1.6,3.64,2.3,1.21,.68,2.36,1.44,3.43,2.31,.21,.17,.36,.35,.39,.63Zm173.73-43.48c-3.3-.27-8.72,1.05-11.1-.98,0,0,1.33-2.81,3.35-3.3,2.25-.55,6.22,2.53,7.76,4.28Zm56.54-.76c-.55,2.25-1.76,5.08-4.3,5.52-1.7,.29-3.66-.37-4.15-2.83-.1-.5-.09-1.03-.08-1.54,0-2.06,.15-4.13-.16-6.18-.06-.39,0-.75,.14-1.1,.21-.57,.46-1.13,.68-1.7,.08-.2,.2-.32,.41-.28,.21,.04,.31,.22,.34,.4,.29,1.43,.27,2.89,.28,4.34,.01,1.68-.49,4.59,1.72,5.08,1.37,.31,3.25-.83,3.6-2.1,.33-1.19,.44-2.39,.14-3.61-.07-.31-.82-3.43-1.02-3.91,.07-.9,.64-2.04,1.04-2.88,.5-1.07,1.17,1.13,1.64,3.22,.53,2.34,.58,4.21,1.8,6.37,.9,1.6,3.12,1.87,4.28,1.77,.23-.02,.45-.14,.61-.4-.82-2-1.83-3.68-2.8-5.6-1.05-2.08-.8-4.06,.29-6.02,.04-.06,.16-.12,.23-.11,.07,0,.17,.09,.19,.16,.23,1.1,.61,2.15,1.1,3.17,.28,.59,.58,1.17,.91,1.74,.8,1.33,1.56,2.7,1.63,4.29,.08,1.73,.08,3.46-.78,5.07-.53,.99-1.36,1.41-2.38,1.49-1.97,.16-3.43-.73-4.45-2.37-.32-.51-.62-1.39-.91-1.98Zm143.65-2.93c-3.79,1.06-19.36,9.59-21.64,11.75-.06-.19,.63-2.98,.75-3.19,2.38-2.32,19.4-11.23,21.73-11.3-.63,1.67-.72,2.52-.85,2.74Zm-70.73-57.32c-12.29,2.53-104.08,45.32-111.8,51.66-.16-.6,2.55-7.72,2.98-8.33,8.09-6.86,104.55-50.5,112-50.23-2.37,5.17-2.73,6.22-3.18,6.9Zm-89.61-6.03c-6.91,1.42-60.31,26.68-64.65,30.24-.09-.34,1.43-4.34,1.68-4.69,4.55-3.85,60.58-29.59,64.76-29.44-1.33,2.91-1.54,3.49-1.79,3.88Zm-176.43,53.83c.02,.32-.08,.61-.23,.88-1.01,1.78-2.03,3.57-3.04,5.35-.08,.13-.15,.27-.24,.39-.31,.43-.72,.58-1.2,.4-1.76-.75-4.79-3.06-6.74-4.27-.94-.58-1.02-.86-.51-1.89,.34-.69,.72-1.36,1.09-2.03,.6-1.08,1.2-2.15,1.8-3.23,.13-.22,.25-.45,.4-.65,.35-.45,.7-.51,1.2-.19,1.21,.77,2.39,1.6,3.64,2.3,1.21,.68,2.36,1.44,3.43,2.31,.21,.17,.36,.35,.39,.63Zm12.44-.69c.02,.32-.08,.61-.23,.88-1.01,1.78-2.03,3.57-3.04,5.35-.08,.13-.15,.27-.24,.39-.31,.43-.72,.58-1.2,.4-1.76-.75-4.79-3.06-6.74-4.27-.94-.58-1.02-.86-.51-1.89,.34-.69,.72-1.36,1.09-2.03,.6-1.08,1.2-2.15,1.8-3.23,.13-.22,.25-.45,.4-.65,.35-.45,.7-.51,1.2-.19,1.21,.77,2.39,1.6,3.64,2.3,1.21,.68,2.36,1.44,3.43,2.31,.21,.17,.36,.35,.39,.63Zm406.23-53.8c-.18,.81-.17,1.74-.17,1.74,.37,.19,1.25,.44,2.09,.95,.85,.52,1.66,1.3,1.85,1.37,.32-.12,.33-.48,.42-.77,1.35,2.08,2.19,4.67,2.67,7.1,0,0,.19,1.38,.49,1.27,1.04-.34,2.01-8.93,2.66-10.6,.87-2.23,2.26-3.77,4.07-.6l1.06-2.64s-.48-.91-1.36-1.52c-2.09-1.43-3.28,.75-4.11,2.5-.62,1.51-1.65,7.29-1.76,8.93,0,0-.5-2.47-1.19-4.43-.64-1.8-1.55-3.4-3.09-4.57-1.7-1.29-3.13-.96-3.62,1.28Zm81.94,19.3c-.25,1.12-.24,2.43-.24,2.43,.51,.27,1.74,.61,2.91,1.33,1.19,.72,2.31,1.81,2.57,1.91,.44-.17,.45-.67,.59-1.08,1.89,2.9,3.05,6.51,3.72,9.89,0,0,.27,1.93,.69,1.76,1.44-.47,2.79-12.43,3.71-14.77,1.21-3.1,3.15-5.25,5.67-.84l1.47-3.68s-.67-1.27-1.9-2.11c-2.92-1.99-4.57,1.04-5.72,3.48-.86,2.11-2.29,10.15-2.45,12.44,0,0-.7-3.44-1.66-6.17-.89-2.51-2.16-4.73-4.31-6.37-2.37-1.8-4.36-1.34-5.05,1.78Zm-435.74,96.05c-.12,.09-.17,.15-.17,.22,.04,.48,3.13,2.08,3.68,1.91,.07-.07,.03-.16,0-.23-.14-.46-.29-.91-.55-1.32-.71-1.15-1.9-1.37-2.98-.57Zm6.04,2.67c-.12,.8-.74,2.16-1.18,2.88-.12,.19-.28,.23-.48,.24-.47,.02-1.29-.24-2.18-.58-1.93-.74-3.55-1.64-5.08-3.12-.13-.12-.24-.05-.34,.06-.49,.7-1.45,2.91-2.25,3.92-2.96,4-17.28,8.26-22.04,9.66-3.57,.53-7.06,1.07-10.65,1.5-.57,.07-1.14,.13-1.71,.18-.08,0-.2,.05-.24-.05-.04-.11,.03-.21,.14-.28,4.51-1.57,9.08-2.88,13.54-4.43,4.4-1.53,16.28-5.24,19.77-7.76,1.39-1,2.31-2.39,3.08-3.89,.34-.67,.72-1.31,1.12-1.94,.04-.07,.1-.14,.15-.19,.25-.23,.35-.24,.59,0,.13,.13,.22,.13,.33-.03,.32-.48,.73-.88,1.18-1.23,1.4-1.06,3.41-1.98,4.64-.02,.93,1.47,1.6,3.32,1.6,5.06Zm-62.28,1.58c-4.43,1.24-22.64,11.22-25.3,13.74-.08-.22,.74-2.89,.88-3.13,2.78-2.72,22.68-13.13,25.41-13.22-.73,1.96-.84,2.35-.99,2.61Zm8.99,6.87c.18,1.24-1.69,7.13-3.56,6.4-4.27-1.68,.22-11.99,1.66-15.43,.6-1.44,1-2.6,1.39-3.2,.24,.72-.08,2.41-.54,3.69-1.11,3.13-4.25,8.71-1.13,11.23,.58,.32,.75,.25,1.06-.54,.31-.77,.63-1.51,1.11-2.14Zm1.56-104.36c-8.07,1.66-70.42,31.15-75.49,35.31-.11-.4,1.67-5.07,1.96-5.47,5.31-4.5,70.73-34.55,75.62-34.37-1.55,3.4-1.79,4.08-2.09,4.53Zm6.09-16.46c4.97-1.62,11.13-.97,16.12,.27-2.11,1.81-14.56,8.51-17.39,10.52,3.59-.55,12.89-3.14,14.84-4.08,2.46-2.03,5.73-7.32,7.22-10.19,.98-1.89,1.51-2.51-.72-3.58-2.84-1.36-13.24-2.44-15.75-1.14-1.16,.6-3.71,6.82-4.31,8.2Zm-53.8-2.1c-11.72,2.42-102.28,45.24-109.64,51.28-.16-.58,2.43-7.36,2.84-7.95,7.71-6.54,102.73-50.18,109.83-49.92-2.26,4.93-2.61,5.93-3.03,6.58Zm-59.19,40.78c4.97-1.62,11.13-.97,16.12,.27-2.11,1.81-14.56,8.51-17.39,10.52,3.59-.55,12.89-3.14,14.84-4.08,2.46-2.03,5.73-7.32,7.22-10.19,.98-1.89,1.51-2.51-.72-3.58-2.84-1.36-13.24-2.44-15.75-1.14-1.16,.6-3.71,6.82-4.31,8.2Zm25.83-20.82c-.23,1.05-.22,2.27-.22,2.27,.48,.25,1.63,.57,2.73,1.24,1.11,.68,2.17,1.7,2.41,1.79,.41-.16,.42-.63,.55-1.01,1.77,2.72,2.86,6.1,3.49,9.27,0,0,.25,1.81,.64,1.65,1.35-.44,2.62-11.66,3.48-13.85,1.14-2.91,2.95-4.92,5.31-.79l1.38-3.45s-.62-1.19-1.78-1.98c-2.73-1.87-4.28,.98-5.36,3.27-.8,1.97-2.15,9.52-2.3,11.66,0,0-.66-3.22-1.56-5.78-.83-2.35-2.03-4.44-4.04-5.97-2.22-1.69-4.09-1.25-4.73,1.67Zm35.45,40.11c.18,1.24-1.69,7.13-3.56,6.4-4.27-1.68,.22-11.99,1.66-15.43,.6-1.44,1-2.6,1.39-3.2,.24,.72-.08,2.41-.54,3.69-1.11,3.13-4.25,8.71-1.13,11.23,.58,.32,.75,.25,1.06-.54,.31-.77,.63-1.51,1.11-2.14Zm3.85-39.51c.26,1.77-2.41,10.16-5.06,9.11-6.07-2.39,.32-17.06,2.37-21.97,.86-2.05,1.42-3.71,1.98-4.56,.34,1.02-.11,3.43-.77,5.26-1.59,4.46-6.05,12.4-1.61,15.98,.83,.46,1.07,.35,1.51-.77,.44-1.09,.9-2.15,1.59-3.05Zm-72.1,46.12c.37,2.56-3.49,14.69-7.33,13.18-8.79-3.46,.46-24.68,3.43-31.78,1.24-2.96,2.06-5.36,2.86-6.59,.5,1.48-.17,4.96-1.11,7.6-2.3,6.45-8.75,17.93-2.34,23.12,1.19,.67,1.54,.51,2.19-1.12,.63-1.58,1.3-3.11,2.29-4.41Zm-41.83-.41c.42,2.89-3.94,16.59-8.28,14.89-9.93-3.91,.52-27.88,3.87-35.9,1.4-3.35,2.33-6.06,3.23-7.44,.56,1.67-.19,5.6-1.25,8.59-2.59,7.29-9.89,20.26-2.64,26.12,1.35,.75,1.74,.58,2.47-1.26,.71-1.79,1.47-3.52,2.59-4.99Zm2.59-44.52c.18,1.24-1.69,7.13-3.56,6.4-4.27-1.68,.22-11.99,1.66-15.43,.31-.74,.57-1.41,.79-1.97-.07-.31-.11-.59-.11-.59-.57-2.86-1.55-5.9-3.14-8.35-.11,.34-.12,.77-.5,.91-.22-.08-1.17-1-2.17-1.61-.99-.6-2.03-.89-2.46-1.12,0,0,0-1.1,.2-2.05,.58-2.64,2.26-3.03,4.26-1.51,1.81,1.38,2.89,3.26,3.64,5.38,.81,2.31,1.41,5.21,1.41,5.21,.13-1.93,1.34-8.73,2.07-10.5,.97-2.06,2.37-4.62,4.83-2.94,1.04,.71,1.6,1.78,1.6,1.78l-1.24,3.11c-2.13-3.72-3.76-1.91-4.79,.71-.77,1.96-1.9,11.94-3.11,12.46-.11,.53-.27,1.08-.44,1.57-1.11,3.13-4.25,8.71-1.13,11.23,.58,.32,.75,.25,1.06-.54,.31-.77,.63-1.51,1.11-2.14Zm220.74,33.11c-.18-1.24,1.69-7.13,3.56-6.4,4.27,1.68-.22,11.99-1.66,15.43-.6,1.44-1,2.6-1.39,3.2-.24-.72,.08-2.41,.54-3.69,1.11-3.13,4.25-8.71,1.13-11.23-.58-.32-.75-.25-1.06,.54-.31,.77-.63,1.51-1.11,2.14Zm41.87,66.86c.18,1.24-1.69,7.13-3.56,6.4-4.27-1.68,.22-11.99,1.66-15.43,.6-1.44,1-2.6,1.39-3.2,.24,.72-.08,2.41-.54,3.69-1.11,3.13-4.25,8.71-1.13,11.23,.58,.32,.75,.25,1.06-.54,.31-.77,.63-1.51,1.11-2.14Zm-65.72-74.27c.18,1.24-1.69,7.13-3.56,6.4-4.27-1.68,.22-11.99,1.66-15.43,.6-1.44,1-2.6,1.39-3.2,.24,.72-.08,2.41-.54,3.69-1.11,3.13-4.25,8.71-1.13,11.23,.58,.32,.75,.25,1.06-.54,.31-.77,.63-1.51,1.11-2.14Zm476.76,72.96c.25,1.69-2.3,9.7-4.84,8.7-5.8-2.28,.3-16.29,2.26-20.98,.82-1.96,1.36-3.54,1.89-4.35,.33,.98-.11,3.27-.73,5.02-1.52,4.26-5.78,11.84-1.54,15.26,.79,.44,1.02,.34,1.45-.74,.42-1.04,.86-2.06,1.51-2.91Zm-563.63-24.77c.18,1.24-1.69,7.13-3.56,6.4-4.27-1.68,.22-11.99,1.66-15.43,.6-1.44,1-2.6,1.39-3.2,.24,.72-.08,2.41-.54,3.69-1.11,3.13-4.25,8.71-1.13,11.23,.58,.32,.75,.25,1.06-.54,.31-.77,.63-1.51,1.11-2.14Zm33.29-61.79c-.23,1.05-.22,2.27-.22,2.27,.48,.25,1.63,.57,2.73,1.24,1.11,.68,2.17,1.7,2.41,1.79,.41-.16,.42-.63,.55-1.01,1.77,2.72,2.86,6.1,3.49,9.27,0,0,.25,1.81,.64,1.65,1.35-.44,2.62-11.66,3.48-13.85,1.14-2.91,2.95-4.92,5.31-.79l1.38-3.45s-.62-1.19-1.78-1.98c-2.73-1.87-4.28,.98-5.36,3.27-.8,1.97-2.15,9.52-2.3,11.66,0,0-.66-3.22-1.56-5.78-.83-2.35-2.03-4.44-4.04-5.97-2.22-1.69-4.09-1.25-4.73,1.67Zm436.86-19.98c.31,2.15-2.93,12.34-6.15,11.07-7.38-2.91,.39-20.74,2.88-26.7,1.04-2.49,1.73-4.5,2.4-5.54,.42,1.24-.14,4.16-.93,6.39-1.93,5.42-7.35,15.07-1.96,19.42,1,.56,1.3,.43,1.84-.94,.53-1.33,1.1-2.62,1.93-3.71Zm-308.48,9.75c-.23,1.05-.22,2.27-.22,2.27,.48,.25,1.63,.57,2.73,1.24,1.11,.68,2.17,1.7,2.41,1.79,.41-.16,.42-.63,.55-1.01,1.77,2.72,2.86,6.1,3.49,9.27,0,0,.25,1.81,.64,1.65,1.35-.44,2.62-11.66,3.48-13.85,1.14-2.91,2.95-4.92,5.31-.79l1.38-3.45s-.62-1.19-1.78-1.98c-2.73-1.87-4.28,.98-5.36,3.27-.8,1.97-2.15,9.52-2.3,11.66,0,0-.66-3.22-1.56-5.78-.83-2.35-2.03-4.44-4.04-5.97-2.22-1.69-4.09-1.25-4.73,1.67Zm99.25,28.45c.37,2.56-3.49,14.69-7.33,13.18-8.79-3.46,.46-24.68,3.43-31.78,1.24-2.96,2.06-5.36,2.86-6.59,.5,1.48-.17,4.96-1.11,7.6-2.3,6.45-8.75,17.93-2.34,23.12,1.19,.67,1.54,.51,2.19-1.12,.63-1.58,1.3-3.11,2.29-4.41Zm46.15-9.83c.37,2.56-3.49,14.69-7.33,13.18-8.79-3.46,.46-24.68,3.43-31.78,1.24-2.96,2.06-5.36,2.86-6.59,.5,1.48-.17,4.96-1.11,7.6-2.3,6.45-8.75,17.93-2.34,23.12,1.19,.67,1.54,.51,2.19-1.12,.63-1.58,1.3-3.11,2.29-4.41Zm32.06-46.23c-.21,.96-.21,2.09-.21,2.09,.44,.23,1.5,.53,2.5,1.14,1.02,.62,1.99,1.56,2.21,1.64,.38-.15,.39-.58,.51-.93,1.62,2.5,2.62,5.6,3.2,8.51,0,0,.23,1.66,.59,1.52,1.24-.41,2.4-10.69,3.19-12.7,1.04-2.67,2.71-4.51,4.87-.72l1.27-3.17s-.57-1.09-1.63-1.82c-2.51-1.71-3.93,.9-4.92,3-.74,1.81-1.97,8.73-2.11,10.7,0,0-.6-2.96-1.43-5.31-.76-2.16-1.86-4.07-3.71-5.47-2.04-1.55-3.75-1.15-4.34,1.53Zm-136.07,24.04c.32,2.2-2.99,12.61-6.29,11.32-7.54-2.97,.39-21.19,2.94-27.29,1.06-2.54,1.77-4.6,2.45-5.66,.43,1.27-.14,4.26-.95,6.53-1.97,5.54-7.52,15.4-2.01,19.85,1.03,.57,1.33,.44,1.88-.96,.54-1.36,1.12-2.67,1.97-3.79Zm9.15-22.01c-.23,1.05-.22,2.27-.22,2.27,.48,.25,1.63,.57,2.73,1.24,1.11,.68,2.17,1.7,2.41,1.79,.41-.16,.42-.63,.55-1.01,1.77,2.72,2.86,6.1,3.49,9.27,0,0,.25,1.81,.64,1.65,1.35-.44,2.62-11.66,3.48-13.85,1.14-2.91,2.95-4.92,5.31-.79l1.38-3.45s-.62-1.19-1.78-1.98c-2.73-1.87-4.28,.98-5.36,3.27-.8,1.97-2.15,9.52-2.3,11.66,0,0-.66-3.22-1.56-5.78-.83-2.35-2.03-4.44-4.04-5.97-2.22-1.69-4.09-1.25-4.73,1.67Zm30.83,1.87c-.19-1.28,1.75-7.36,3.67-6.6,4.4,1.73-.23,12.37-1.72,15.93-.62,1.48-1.03,2.69-1.43,3.3-.25-.74,.08-2.48,.55-3.81,1.15-3.23,4.39-8.99,1.17-11.59-.6-.33-.77-.26-1.1,.56-.32,.79-.65,1.56-1.15,2.21Zm-105.69-2.72c-.23,1.05-.22,2.27-.22,2.27,.48,.25,1.63,.57,2.73,1.24,1.11,.68,2.17,1.7,2.41,1.79,.41-.16,.42-.63,.55-1.01,1.77,2.72,2.86,6.1,3.49,9.27,0,0,.25,1.81,.64,1.65,1.35-.44,2.62-11.66,3.48-13.85,1.14-2.91,2.95-4.92,5.31-.79l1.38-3.45s-.62-1.19-1.78-1.98c-2.73-1.87-4.28,.98-5.36,3.27-.8,1.97-2.15,9.52-2.3,11.66,0,0-.66-3.22-1.56-5.78-.83-2.35-2.03-4.44-4.04-5.97-2.22-1.69-4.09-1.25-4.73,1.67Zm264.34,.58c-.18,.81-.17,1.74-.17,1.74,.37,.19,1.25,.44,2.09,.95,.85,.52,1.66,1.3,1.85,1.37,.32-.12,.33-.48,.42-.77,1.35,2.08,2.19,4.67,2.67,7.1,0,0,.19,1.38,.49,1.27,1.04-.34,2.01-8.93,2.66-10.6,.87-2.23,2.26-3.77,4.07-.6l1.06-2.64s-.48-.91-1.36-1.52c-2.09-1.43-3.28,.75-4.1,2.5-.62,1.51-1.65,7.29-1.76,8.93,0,0-.5-2.47-1.19-4.43-.64-1.8-1.55-3.4-3.09-4.57-1.7-1.29-3.13-.96-3.62,1.28Zm48.33,22.51c.18,1.27-1.72,7.26-3.62,6.51-4.34-1.71,.23-12.2,1.69-15.7,.61-1.46,1.02-2.65,1.41-3.26,.25,.73-.08,2.45-.55,3.76-1.13,3.19-4.33,8.86-1.15,11.42,.59,.33,.76,.25,1.08-.55,.31-.78,.64-1.54,1.13-2.18Zm45.64-22.36c-.16-1.08,1.47-6.2,3.09-5.56,3.71,1.46-.19,10.42-1.45,13.42-.52,1.25-.87,2.26-1.21,2.78-.21-.63,.07-2.09,.47-3.21,.97-2.72,3.7-7.57,.99-9.76-.5-.28-.65-.22-.92,.47-.27,.67-.55,1.31-.97,1.86Zm64.84,17c.25,1.69-2.3,9.7-4.84,8.7-5.8-2.28,.3-16.29,2.26-20.98,.82-1.96,1.36-3.54,1.89-4.35,.33,.98-.11,3.27-.73,5.02-1.52,4.26-5.78,11.84-1.54,15.26,.79,.44,1.02,.34,1.45-.74,.42-1.04,.86-2.06,1.51-2.91Zm-205.82,21.44c.37,2.56-3.49,14.69-7.33,13.18-8.79-3.46,.46-24.68,3.43-31.78,1.24-2.96,2.06-5.36,2.86-6.59,.5,1.48-.17,4.96-1.11,7.6-2.3,6.45-8.75,17.93-2.34,23.12,1.19,.67,1.54,.51,2.19-1.11,.63-1.58,1.3-3.11,2.29-4.41Zm-56.2-40.36c-.21,.96-.21,2.09-.21,2.09,.44,.23,1.5,.53,2.5,1.14,1.02,.62,1.99,1.56,2.21,1.64,.38-.15,.39-.58,.51-.93,1.62,2.5,2.62,5.6,3.2,8.51,0,0,.23,1.66,.59,1.52,1.24-.41,2.4-10.69,3.19-12.7,1.04-2.67,2.71-4.51,4.87-.72l1.27-3.17s-.57-1.09-1.63-1.82c-2.51-1.71-3.93,.9-4.92,3-.74,1.81-1.97,8.73-2.11,10.7,0,0-.6-2.96-1.43-5.31-.76-2.16-1.86-4.07-3.71-5.47-2.04-1.55-3.75-1.15-4.34,1.53Zm22.38,39.28c.18,1.27-1.72,7.26-3.62,6.51-4.34-1.71,.23-12.2,1.69-15.7,.61-1.46,1.02-2.65,1.41-3.26,.25,.73-.08,2.45-.55,3.76-1.13,3.19-4.33,8.86-1.15,11.42,.59,.33,.76,.25,1.08-.55,.31-.78,.64-1.54,1.13-2.18Zm-238.87-12.28s-2.73-1.91-3.83-3.03c-.97-.99-1.16-2.22-1.16-2.22,0,0,2.44-1.46,3.87-.42,2.56,2.03,1.13,5.67,1.12,5.67Zm1.36,6.6c-.76-.85-2.28-2.19-2.28-2.19-5.46,9.21-19.94,18.39-29.7,22.57,0,0-3.48,1.12-3.22,.54,.3-.66,4.51-2.76,4.51-2.76,9.74-5.77,19.56-12.78,27.41-20.98-2.14-1.36-5.96-4.03-5.21-6.9,.23-.87,.59-1.98,1.28-3.02,1.63-2.44,4.39-4.64,6.54-3.45,3.57,2.17,1.68,7.45,.56,10.59,0,0,2.05,1.12,2.42,2.67,.33,1.36-1.64,4.17-1.64,4.17,0,0-.42-.96-.67-1.24Zm-70.09-31.58c-.23,1.05-.22,2.27-.22,2.27,.48,.25,1.63,.57,2.73,1.24,1.11,.68,2.17,1.7,2.41,1.79,.41-.16,.42-.63,.55-1.01,1.77,2.72,2.86,6.1,3.49,9.27,0,0,.25,1.81,.64,1.65,1.35-.44,2.62-11.66,3.48-13.85,1.14-2.91,2.95-4.92,5.31-.79l1.38-3.45s-.62-1.19-1.78-1.98c-2.73-1.87-4.28,.98-5.36,3.27-.8,1.97-2.15,9.52-2.3,11.66,0,0-.66-3.22-1.56-5.78-.83-2.35-2.03-4.44-4.04-5.97-2.22-1.69-4.09-1.25-4.73,1.67Zm-101.28,15.55c.33,2.28-3.1,13.07-6.52,11.72-7.82-3.08,.41-21.96,3.05-28.27,1.1-2.63,1.83-4.77,2.54-5.86,.44,1.32-.15,4.41-.98,6.76-2.04,5.74-7.79,15.95-2.08,20.56,1.06,.59,1.37,.45,1.95-.99,.56-1.41,1.16-2.77,2.04-3.93Zm7.52-15.55c-.23,1.05-.22,2.27-.22,2.27,.48,.25,1.63,.57,2.73,1.24,1.11,.68,2.17,1.7,2.41,1.79,.41-.16,.42-.63,.55-1.01,1.77,2.72,2.86,6.1,3.49,9.27,0,0,.25,1.81,.64,1.65,1.35-.44,2.62-11.66,3.48-13.85,1.14-2.91,2.95-4.92,5.31-.79l1.38-3.45s-.62-1.19-1.78-1.98c-2.73-1.87-4.28,.98-5.36,3.27-.8,1.97-2.15,9.52-2.3,11.66,0,0-.66-3.22-1.56-5.78-.83-2.35-2.03-4.44-4.04-5.97-2.22-1.69-4.09-1.25-4.73,1.67Zm32.57-1.29c-.14-.95,1.29-5.45,2.72-4.89,3.26,1.28-.17,9.16-1.27,11.8-.46,1.1-.76,1.99-1.06,2.45-.18-.55,.06-1.84,.41-2.82,.85-2.4,3.25-6.66,.87-8.58-.44-.25-.57-.19-.81,.41-.23,.59-.48,1.16-.85,1.64Zm-58.62,102.03c4.97-1.62,11.13-.97,16.12,.27-2.11,1.81-14.56,8.51-17.39,10.52,3.59-.55,12.89-3.14,14.84-4.08,2.46-2.03,5.73-7.32,7.22-10.19,.98-1.89,1.51-2.51-.72-3.58-2.84-1.36-13.24-2.44-15.75-1.14-1.16,.6-3.71,6.82-4.31,8.2Zm.16-39.25c-.21,.95-.2,2.05-.2,2.05,.43,.23,1.47,.52,2.46,1.12,1,.61,1.95,1.53,2.17,1.61,.37-.14,.38-.57,.5-.91,1.59,2.45,2.58,5.5,3.14,8.35,0,0,.23,1.63,.58,1.49,1.22-.4,2.36-10.5,3.13-12.47,1.02-2.62,2.66-4.43,4.79-.71l1.24-3.11s-.56-1.07-1.6-1.78c-2.46-1.68-3.86,.88-4.83,2.94-.72,1.78-1.94,8.58-2.07,10.5,0,0-.59-2.9-1.41-5.21-.75-2.12-1.83-4-3.64-5.38-2-1.52-3.69-1.13-4.26,1.51Zm636.53,20.32c.25,1.69-2.3,9.7-4.84,8.7-5.8-2.28,.3-16.29,2.26-20.98,.82-1.96,1.36-3.54,1.89-4.35,.33,.98-.11,3.27-.73,5.02-1.52,4.26-5.78,11.84-1.54,15.26,.79,.44,1.02,.34,1.45-.74,.42-1.04,.86-2.06,1.51-2.91Zm9.74,38.67c-.16-1.08,1.47-6.2,3.09-5.56,3.71,1.46-.19,10.42-1.45,13.42-.52,1.25-.87,2.26-1.21,2.78-.21-.63,.07-2.09,.47-3.21,.97-2.72,3.7-7.57,.99-9.76-.5-.28-.65-.22-.92,.47-.27,.67-.55,1.31-.97,1.86Zm-424.64-110.05c.21,1.47-2,8.43-4.21,7.56-5.04-1.99,.26-14.17,1.97-18.24,.71-1.7,1.18-3.08,1.64-3.78,.29,.85-.1,2.85-.64,4.37-1.32,3.7-5.02,10.3-1.34,13.27,.69,.38,.89,.29,1.26-.64,.36-.91,.75-1.79,1.32-2.53Zm125.04,39.17c.18,1.24-1.69,7.13-3.56,6.4-4.27-1.68,.22-11.99,1.66-15.43,.6-1.44,1-2.6,1.39-3.2,.24,.72-.08,2.41-.54,3.69-1.11,3.13-4.25,8.71-1.13,11.23,.58,.32,.75,.25,1.06-.54,.31-.77,.63-1.51,1.11-2.14Zm-174.62-23.76c.18,1.24-1.69,7.13-3.56,6.4-4.27-1.68,.22-11.99,1.66-15.43,.6-1.44,1-2.6,1.39-3.2,.24,.72-.08,2.41-.54,3.69-1.11,3.13-4.25,8.71-1.13,11.23,.58,.32,.75,.25,1.06-.54,.31-.77,.63-1.51,1.11-2.14Zm448.84-22.9c.13,.92-1.25,5.25-2.62,4.71-3.14-1.24,.16-8.82,1.22-11.36,.44-1.06,.74-1.92,1.02-2.36,.18,.53-.06,1.77-.4,2.72-.82,2.31-3.13,6.41-.83,8.26,.43,.24,.55,.18,.78-.4,.22-.57,.47-1.11,.82-1.58Zm50.1,48.69c-.16-1.08,1.47-6.2,3.09-5.56,3.71,1.46-.19,10.42-1.45,13.42-.52,1.25-.87,2.26-1.21,2.78-.21-.63,.07-2.09,.47-3.21,.97-2.72,3.7-7.57,.99-9.76-.5-.28-.65-.22-.92,.47-.27,.67-.55,1.31-.97,1.86Zm-479.22-49.87c.12,.81-1.11,4.67-2.33,4.19-2.79-1.1,.15-7.85,1.09-10.1,.39-.94,.65-1.7,.91-2.09,.16,.47-.05,1.58-.35,2.42-.73,2.05-2.78,5.7-.74,7.35,.38,.21,.49,.16,.7-.35,.2-.5,.41-.99,.73-1.4Zm118.44,116.4c-4.43,1.24-22.64,11.22-25.3,13.74-.08-.22,.74-2.89,.88-3.13,2.78-2.72,22.68-13.13,25.41-13.22-.73,1.96-.84,2.35-.99,2.61Zm-52.27-77.42c.19,1.28-1.75,7.36-3.67,6.6-4.4-1.73,.23-12.37,1.72-15.93,.62-1.48,1.03-2.69,1.43-3.3,.25,.74-.08,2.48-.55,3.81-1.15,3.23-4.39,8.99-1.17,11.58,.6,.33,.77,.26,1.1-.56,.32-.79,.65-1.56,1.15-2.21Zm177.78,75.92c-4.72,1.32-24.1,11.94-26.94,14.62-.08-.23,.78-3.71,.94-3.97,2.96-2.89,24.14-13.97,27.05-14.07-.78,2.08-.9,3.13-1.05,3.41Zm-203.14-102.37c-.11,.36,.14,2.73,.53,5.86,.87,6.99,2.06,19.64,3.5,33.34,2.35,22.53,5.85,46.6-1.62,55.5,.03-17.61-2.04-35.26-3.84-52.89-1.79-17.44-3.3-34.86-4.75-52.2-.05-.6-.71-1.36-1.07-1.81,.26-1.08,2.75-6.98,3.16-7.75,2,5,10.38,22.12,9.38,24.2-.67,1.4-4.76-3.76-5.27-4.25Zm255.53,95.97c-7.76-.43-31.75-3.92-36.99-2.95-.35,.07-.69,.19-1.05,.23-.61,.07-.98-.07-1.11-.38-.08-.19-.06-.46,.06-.79,.21-.58,.49-1.13,.75-1.69,.59-1.27,1.17-2.54,1.78-3.81,.44-.91,1.17-1.4,2.26-1.71,5.12-1.44,18.64-2.84,22.41-4.2-.02-1.29-.11-3.04-.19-4.54-.7-12.35-2.12-23.94-3.41-36.51-1.78-17.44-3.31-32.95-4.75-50.29-.05-.59-.71-1.36-1.07-1.81,.26-1.08,2.75-6.98,3.16-7.75,2,5,10.38,22.12,9.38,24.2-.67,1.4-4.76-3.76-5.27-4.25-.11,.36,.14,2.74,.53,5.86,.87,6.98,2.07,17.74,3.5,31.43,1.2,11.47,2.28,21.76,2.28,31.98,0,2.49-.17,5.21-.5,7.93-.31,2.49-1.06,7.29-2.13,9.42-.3,.53-.13,.79,.56,.9,2.73,.42,5.47,.83,8.23,1.06,4.39,.37,8.87,.69,13.37,.93-.34-15.8-2.17-31.62-3.79-47.42-1.79-17.44-3.3-34.86-4.75-52.2-.05-.6-.71-1.36-1.07-1.81,.26-1.08,2.75-6.98,3.16-7.75,2,5,10.38,22.12,9.38,24.2-.67,1.4-4.76-3.76-5.27-4.25-.11,.36,.14,2.73,.53,5.86,.87,6.99,2.06,19.64,3.5,33.34,1.98,18.95,4.77,38.99,1.16,50.17,5.59,.25,11.19,.35,16.65,.25,.24,0,.48-.02,.72,.01,.34,.04,.52,.27,.54,.56,.09,1.38-2.25,5.63-2.98,7.05-.2,.39-.5,.69-.97,.58-10.48-2.41-20.19,1.41-29.82,6.67-13.65,7.46-39.09,24.75-46.12,.55-2.78-9.55-3.26-23.76-3.81-33.73-.44-8.01-.74-16.01-1.1-23.42-1.08-22.57-2.7-49.5-6.06-55.08l2.43-8.63c.24-.43,.54,.1,.83,.91,5.7,16.06,6.14,35.35,7.04,52.2,.56,10.57,.91,21.67,1.48,32.63,.44,8.44,.67,22.07,3.27,29.98,6.53,19.89,32.13,2.33,43.29-3.93Zm-116.3-8.8c-1.02,5.32-.72,12.01,2.54,16.08,11.63,14.51,42.56-8.44,49.59-18.47,.02-.22-.03-.45-.17-.72-2.4-4.33-5.04-9.34-6.92-14.08-.62-1.57-2.55-8.4-3.08-9.06l-1.43-1.33,2.78-8.71h.24l.61,.73,7.14,9.55s1.69,2.33,1.69,3.02c0,.86-2.83-.7-3.63-.73,.29,2.05,1.85,4.62,3.29,7.18,3.78,6.74,3.43,14.34,.46,21.35-.67,1.59-1.58,3.07-2.87,4.46-7.89,8.5-25.14,19.01-34.56,20.57-7.91,1.73-13.16-2.39-13.16-2.39,0,0-3.83-2.92-5.35-7.85-1.84-5.95-.72-13.28,.86-18.75-15.06,6.69-36.9,16.48-37.3-1.71-.99-.73-2.76,4.07-6.62,7.76-5.29,5.05-12.98,5.36-18.53,.38-2.61-2.34-4.51-5.79-5.92-9.27-.04-.1-.08-.21-.13-.3-.72-1.4-.91-1.86-1.35-1.92-2.63-.37-5.95,2.07-8.53,4.95-2.5,2.79-3.87,5.94-4.87,9.09-1.33,4.19-2.01,8.39-3.82,11.77-3.59,6.73-9.7,5.17-13.71-1.02-2.77-4.27-4.42-14.72-3.76-19.9,.03-.24,.07-.5,.11-.77-13.01,9.38-33.53,20.9-39.84,21.84-1.79,.27-23.48,5.8-32.84,7.97-9.36,2.17-2.85-1.06,10.59-6.13,8.79-3.32,16.63-6.78,24.06-10.25,10.65-4.96,42.7-23.1,49.98-31.89-2.44-8.95-13.01-6.2-20.18-7.43-4.27-.73-6.78-4.53-6.68-8.76,.09-3.75,1.61-7.74,4.34-10.64,5.49-5.85,11.26-4.01,16.52,1.63,5.64,6.04,8.89,16.1,7.89,25.06-.39,3.5-1.49,5.98-3.03,8.85-1.07,2-4.5,5.06-9.12,8.5l-.03,.31c-.23,2.49-.03,5.76,.68,8.92,.91,4.03,3.94,11.22,9.04,10.95,3.98-.21,5.93-6.48,6.97-10.47,2.3-8.86,5.38-15.82,14.39-19.91,.84-.38,1.76-.59,2.67-.76,1.03-.19,1.49,.09,1.96,1.04,1.71,3.45,2.45,6,5.04,9.23,2.41,3,6.98,4.34,10.38,4.22,3.66-.12,7.43-1.93,10.32-5.14,.27-.29,5.72-8.49,6.08-5.89,.05,.33,.03,.67,0,1-1.08,16.84,31.64,2.78,37.55,.26,1.12-.48,2.24-.99,3.49-1.51-1.04-.2-1.95-.41-2.84-.67-2.17-.63-12.85-3.65-14.93-3.81-.1,0-1.79-.28-1.89-.28-.68-.03-.83,.58-1.46,.9-1.42,.72-13.09-.84-16.5-.5-.65,.07-1.34,.11-1.86-.46-.45-.49,.45-3.3,.68-3.97,.44-1.24,.78-2.52,1.38-3.7,.67-1.3,15.43-2.39,17.86-1.45,3.71,1.43,9.79,2.74,13.91,3.97,5.01,1.5,10.24,2.85,15.54,3.86-1.09-9.25-3.42-21.74-5.29-28.26-.93-3.24-1.92-5.38-1.03-8.76,.25-.93,.66-1.82,1.18-2.6,.92-1.39,2.18-2.16,3.66-2.62,.44-.14,.91-.16,1.32-.42-.13-.25-.36-.31-.55-.45-1.4-1.03-2.47-.44-3.13,.92-.09,.19-.16,.4-.25,.59-.07,.16-.15,.31-.27,.55-.06-.2-.12-.29-.11-.36,.35-1.56,.58-3.16,1.49-4.52,.43-.64,.92-.98,1.43-1.11-.05-.25-.07-.43-.07-.43-.68-3.43-1.86-7.09-3.78-10.04-.14,.41-.15,.92-.6,1.09-.26-.09-1.41-1.2-2.61-1.93-1.19-.72-2.44-1.07-2.95-1.34,0,0,0-1.32,.24-2.46,.7-3.17,2.72-3.64,5.12-1.81,2.18,1.65,3.47,3.91,4.37,6.46,.98,2.77,1.69,6.26,1.69,6.26,.16-2.32,1.61-10.48,2.48-12.62,1.17-2.48,2.84-5.55,5.8-3.53,1.25,.85,1.93,2.14,1.93,2.14l-1.49,3.74c-2.55-4.47-4.52-2.29-5.75,.85-.76,1.95-1.82,10.5-2.99,13.75,2.12,.76,4.24,3.84,4.39,4.52,.08,.36-.8,2.91-1.07,3.11-.08,.06-1.48-.35-4.3,.19-1.53,.27-2.9,.93-4.17,1.88-.1,.07-.18,.15-.19,.24,1.16,4.56,2.65,9.15,3.74,13.8,1.61,6.91,2.66,13.95,3.12,21.25,.05,.78,.07,1.5,.07,2.17,6.52,1.16,13.13,1.8,19.6,1.55,.62,.12,.86,.42,.74,1.04-.36,1.84-1.81,6.63-2.23,8.44-.05,.04-13.19-1.49-23.58,.25-2.15,.36-5.6,1.8-9.7,3.61Z"/></svg>